<?xml version="1.0" encoding="UTF-8" standalone="no"?>
<!-- Generator: Adobe Illustrator 18.1.1, SVG Export Plug-In . SVG Version: 6.00 Build 0)  -->

<svg
   version="1.1"
   id="Capa_1"
   x="0px"
   y="0px"
   viewBox="0 0 487.678 487.678"
   style="enable-background:new 0 0 487.678 487.678;"
   xml:space="preserve"
   sodipodi:docname="male-user-svgrepo-com.svg"
   inkscape:version="1.2.1 (9c6d41e410, 2022-07-14)"
   xmlns:inkscape="http://www.inkscape.org/namespaces/inkscape"
   xmlns:sodipodi="http://sodipodi.sourceforge.net/DTD/sodipodi-0.dtd"
   xmlns="http://www.w3.org/2000/svg"
   xmlns:svg="http://www.w3.org/2000/svg"><defs
   id="defs43" /><sodipodi:namedview
   id="namedview41"
   pagecolor="#ffffff"
   bordercolor="#000000"
   borderopacity="0.25"
   inkscape:showpageshadow="2"
   inkscape:pageopacity="0.0"
   inkscape:pagecheckerboard="0"
   inkscape:deskcolor="#d1d1d1"
   showgrid="false"
   inkscape:zoom="1.6978416"
   inkscape:cx="244.42798"
   inkscape:cy="244.72248"
   inkscape:window-width="2560"
   inkscape:window-height="1017"
   inkscape:window-x="-8"
   inkscape:window-y="-8"
   inkscape:window-maximized="1"
   inkscape:current-layer="g6" />
<g
   id="g8">
	<g
   id="g6">
		<path
   style="fill:#010002"
   d="M 377.996,282.347 C 321.795,263.99 298.433,241.162 298.433,241.162 l -1.881,1.793 c -16.69,15.709 -35.149,24.944 -51.965,24.944 H 243 c -16.815,0 -35.274,-9.235 -51.964,-24.944 l -1.882,-1.793 c 0,0 -23.36,22.827 -79.562,41.185 -82.964,30.992 -58.053,157.119 -58.077,158.096 2.613,14.047 7.669899,20.64195 8.996899,21.18395 118.652981,6.46388 218.463061,11.17575 369.511121,-4.12288 1.327,-0.542 3.43898,-3.01407 6.05198,-17.06107 -0.024,-0.977 25.22,-126.603 -58.079,-158.096 z"
   id="path2"
   sodipodi:nodetypes="cccsscccccccc" />
		<path
   style="fill:#010002"
   d="m 328.86992,117.24598 c 0,0 5.19708,-41.67198 -1.33192,-61.09998 C 308.97977,18.227727 296.93985,15.361547 245.26073,5.6868479 184.86299,11.342373 167.24411,32.655975 158.756,56.146 c -6.528,19.428 -1.9199,62.27795 -1.9199,62.27795 2.75714,12.83826 4.2867,35.56604 7.7909,47.07305 9.903,46.497 44.338,86.197 79.429,86.197 35.091,0 67.707,-39.7 77.61,-86.197 3.77458,-16.7869 5.82008,-33.04308 7.20392,-48.25102 z"
   id="path4"
   sodipodi:nodetypes="ccccccscc" />
	</g>
</g>
<g
   id="g10">
</g>
<g
   id="g12">
</g>
<g
   id="g14">
</g>
<g
   id="g16">
</g>
<g
   id="g18">
</g>
<g
   id="g20">
</g>
<g
   id="g22">
</g>
<g
   id="g24">
</g>
<g
   id="g26">
</g>
<g
   id="g28">
</g>
<g
   id="g30">
</g>
<g
   id="g32">
</g>
<g
   id="g34">
</g>
<g
   id="g36">
</g>
<g
   id="g38">
</g>
</svg>
